<svg width="265" height="65" viewBox="0 0 265 65" fill="none" xmlns="http://www.w3.org/2000/svg">
<path d="M265 29.0455C265 13.0041 251.996 0 235.955 0H29.0455C13.0041 0 0 13.0041 0 29.0455C0 45.0868 13.0041 58.0909 29.0455 58.0909H125.606L132 65L138.394 58.0909H235.955C251.996 58.0909 265 45.0868 265 29.0455Z" fill="#2D2D2D"/>
<path d="M149.8 33.16C149.203 33.16 148.648 33.0587 148.136 32.856C147.624 32.6427 147.181 32.3547 146.808 31.992C146.445 31.6187 146.157 31.176 145.944 30.664C145.741 30.152 145.64 29.5973 145.64 29C145.64 28.4027 145.741 27.848 145.944 27.336C146.157 26.824 146.445 26.3867 146.808 26.024C147.181 25.6507 147.624 25.3627 148.136 25.16C148.648 24.9467 149.203 24.84 149.8 24.84C150.397 24.84 150.952 24.9467 151.464 25.16C151.976 25.3627 152.413 25.6507 152.776 26.024C153.149 26.3867 153.437 26.824 153.64 27.336C153.853 27.848 153.96 28.4027 153.96 29C153.96 29.5973 153.853 30.152 153.64 30.664C153.437 31.176 153.149 31.6187 152.776 31.992C152.413 32.3547 151.976 32.6427 151.464 32.856C150.952 33.0587 150.397 33.16 149.8 33.16ZM149.8 31.96C150.216 31.96 150.6 31.8907 150.952 31.752C151.304 31.6027 151.608 31.4 151.864 31.144C152.12 30.8773 152.317 30.5627 152.456 30.2C152.605 29.8373 152.68 29.4373 152.68 29C152.68 28.5627 152.605 28.1627 152.456 27.8C152.317 27.4373 152.12 27.128 151.864 26.872C151.608 26.6053 151.304 26.4027 150.952 26.264C150.6 26.1147 150.216 26.04 149.8 26.04C149.384 26.04 149 26.1147 148.648 26.264C148.296 26.4027 147.992 26.6053 147.736 26.872C147.48 27.128 147.277 27.4373 147.128 27.8C146.989 28.1627 146.92 28.5627 146.92 29C146.92 29.4373 146.989 29.8373 147.128 30.2C147.277 30.5627 147.48 30.8773 147.736 31.144C147.992 31.4 148.296 31.6027 148.648 31.752C149 31.8907 149.384 31.96 149.8 31.96ZM159.314 33.08C158.716 33.0373 158.162 32.904 157.65 32.68C157.138 32.456 156.695 32.1627 156.322 31.8C155.959 31.4267 155.671 31.0053 155.458 30.536C155.255 30.056 155.154 29.544 155.154 29C155.154 28.456 155.255 27.9493 155.458 27.48C155.671 27 155.959 26.5787 156.322 26.216C156.695 25.8427 157.138 25.544 157.65 25.32C158.162 25.096 158.716 24.9627 159.314 24.92V21.8H160.594V24.92C161.191 24.9627 161.746 25.096 162.258 25.32C162.77 25.544 163.207 25.8427 163.57 26.216C163.943 26.5787 164.231 27 164.434 27.48C164.647 27.9493 164.754 28.456 164.754 29C164.754 29.544 164.647 30.056 164.434 30.536C164.231 31.0053 163.943 31.4267 163.57 31.8C163.207 32.1627 162.77 32.456 162.258 32.68C161.746 32.904 161.191 33.0373 160.594 33.08V36.04H159.314V33.08ZM159.314 26.12C158.898 26.1413 158.514 26.2267 158.162 26.376C157.81 26.5253 157.506 26.728 157.25 26.984C156.994 27.24 156.791 27.544 156.642 27.896C156.503 28.2373 156.434 28.6053 156.434 29C156.434 29.4053 156.503 29.7787 156.642 30.12C156.791 30.4613 156.994 30.76 157.25 31.016C157.506 31.272 157.81 31.4747 158.162 31.624C158.514 31.7733 158.898 31.8587 159.314 31.88V26.12ZM160.594 31.88C161.01 31.8587 161.394 31.7733 161.746 31.624C162.098 31.4747 162.402 31.272 162.658 31.016C162.914 30.76 163.111 30.4613 163.25 30.12C163.399 29.7787 163.474 29.4053 163.474 29C163.474 28.6053 163.399 28.2373 163.25 27.896C163.111 27.544 162.914 27.24 162.658 26.984C162.402 26.728 162.098 26.5253 161.746 26.376C161.394 26.2267 161.01 26.1413 160.594 26.12V31.88ZM166.433 25H167.713V33H166.433V25ZM167.073 23.48C166.827 23.48 166.619 23.3947 166.449 23.224C166.278 23.0533 166.193 22.8453 166.193 22.6C166.193 22.3547 166.278 22.1467 166.449 21.976C166.619 21.8053 166.827 21.72 167.073 21.72C167.318 21.72 167.526 21.8053 167.697 21.976C167.867 22.1467 167.953 22.3547 167.953 22.6C167.953 22.8453 167.867 23.0533 167.697 23.224C167.526 23.3947 167.318 23.48 167.073 23.48ZM173.468 33.16C172.903 33.16 172.375 33.0587 171.884 32.856C171.404 32.6427 170.983 32.3547 170.62 31.992C170.268 31.6187 169.985 31.176 169.772 30.664C169.569 30.152 169.468 29.5973 169.468 29C169.468 28.4027 169.569 27.848 169.772 27.336C169.985 26.824 170.268 26.3867 170.62 26.024C170.983 25.6507 171.404 25.3627 171.884 25.16C172.375 24.9467 172.903 24.84 173.468 24.84C173.863 24.84 174.22 24.8827 174.54 24.968C174.871 25.0427 175.164 25.1493 175.42 25.288C175.676 25.416 175.9 25.5653 176.092 25.736C176.284 25.9067 176.449 26.0773 176.588 26.248C176.919 26.664 177.159 27.128 177.308 27.64H176.028C175.9 27.3413 175.724 27.0747 175.5 26.84C175.308 26.6373 175.047 26.456 174.716 26.296C174.385 26.1253 173.969 26.04 173.468 26.04C173.084 26.04 172.727 26.1147 172.396 26.264C172.065 26.4027 171.777 26.6053 171.532 26.872C171.287 27.128 171.095 27.4373 170.956 27.8C170.817 28.1627 170.748 28.5627 170.748 29C170.748 29.448 170.823 29.8533 170.972 30.216C171.121 30.5787 171.319 30.888 171.564 31.144C171.809 31.4 172.097 31.6027 172.428 31.752C172.759 31.8907 173.105 31.96 173.468 31.96C173.991 31.96 174.417 31.8693 174.748 31.688C175.089 31.5067 175.361 31.304 175.564 31.08C175.799 30.824 175.98 30.5307 176.108 30.2H177.388C177.239 30.7653 176.993 31.2613 176.652 31.688C176.503 31.8693 176.332 32.0507 176.14 32.232C175.948 32.4027 175.719 32.5573 175.452 32.696C175.196 32.8347 174.903 32.9467 174.572 33.032C174.241 33.1173 173.873 33.16 173.468 33.16ZM183.479 25H190.439V33H189.159V26.2H184.759V33H183.479V25ZM192.683 25H193.963V26.28H193.979C193.979 26.28 194.027 26.2053 194.123 26.056C194.229 25.896 194.395 25.7307 194.619 25.56C194.853 25.3787 195.152 25.2133 195.515 25.064C195.877 24.9147 196.32 24.84 196.843 24.84C197.365 24.84 197.856 24.9467 198.315 25.16C198.784 25.3627 199.195 25.6507 199.547 26.024C199.899 26.3867 200.176 26.824 200.378 27.336C200.581 27.848 200.683 28.4027 200.683 29C200.683 29.5973 200.581 30.152 200.378 30.664C200.176 31.176 199.899 31.6187 199.547 31.992C199.195 32.3547 198.784 32.6427 198.315 32.856C197.856 33.0587 197.365 33.16 196.843 33.16C196.32 33.16 195.877 33.0853 195.515 32.936C195.152 32.7867 194.853 32.6267 194.619 32.456C194.395 32.2747 194.229 32.1093 194.123 31.96C194.027 31.8 193.979 31.72 193.979 31.72H193.963V36.04H192.683V25ZM196.683 31.96C197.067 31.96 197.424 31.8907 197.755 31.752C198.085 31.6027 198.373 31.4 198.619 31.144C198.864 30.8773 199.056 30.5627 199.195 30.2C199.333 29.8373 199.403 29.4373 199.403 29C199.403 28.5627 199.333 28.1627 199.195 27.8C199.056 27.4373 198.864 27.128 198.619 26.872C198.373 26.6053 198.085 26.4027 197.755 26.264C197.424 26.1147 197.067 26.04 196.683 26.04C196.299 26.04 195.941 26.1147 195.611 26.264C195.28 26.4027 194.992 26.6053 194.747 26.872C194.501 27.128 194.309 27.4373 194.171 27.8C194.032 28.1627 193.963 28.5627 193.963 29C193.963 29.4373 194.032 29.8373 194.171 30.2C194.309 30.5627 194.501 30.8773 194.747 31.144C194.992 31.4 195.28 31.6027 195.611 31.752C195.941 31.8907 196.299 31.96 196.683 31.96ZM206.128 33.16C205.531 33.16 204.976 33.0587 204.464 32.856C203.952 32.6427 203.509 32.3547 203.136 31.992C202.773 31.6187 202.485 31.176 202.272 30.664C202.069 30.152 201.968 29.5973 201.968 29C201.968 28.4027 202.069 27.848 202.272 27.336C202.485 26.824 202.773 26.3867 203.136 26.024C203.509 25.6507 203.952 25.3627 204.464 25.16C204.976 24.9467 205.531 24.84 206.128 24.84C206.725 24.84 207.28 24.9467 207.792 25.16C208.304 25.3627 208.741 25.6507 209.104 26.024C209.477 26.3867 209.765 26.824 209.968 27.336C210.181 27.848 210.288 28.4027 210.288 29C210.288 29.5973 210.181 30.152 209.968 30.664C209.765 31.176 209.477 31.6187 209.104 31.992C208.741 32.3547 208.304 32.6427 207.792 32.856C207.28 33.0587 206.725 33.16 206.128 33.16ZM206.128 31.96C206.544 31.96 206.928 31.8907 207.28 31.752C207.632 31.6027 207.936 31.4 208.192 31.144C208.448 30.8773 208.645 30.5627 208.784 30.2C208.933 29.8373 209.008 29.4373 209.008 29C209.008 28.5627 208.933 28.1627 208.784 27.8C208.645 27.4373 208.448 27.128 208.192 26.872C207.936 26.6053 207.632 26.4027 207.28 26.264C206.928 26.1147 206.544 26.04 206.128 26.04C205.712 26.04 205.328 26.1147 204.976 26.264C204.624 26.4027 204.32 26.6053 204.064 26.872C203.808 27.128 203.605 27.4373 203.456 27.8C203.317 28.1627 203.248 28.5627 203.248 29C203.248 29.4373 203.317 29.8373 203.456 30.2C203.605 30.5627 203.808 30.8773 204.064 31.144C204.32 31.4 204.624 31.6027 204.976 31.752C205.328 31.8907 205.712 31.96 206.128 31.96ZM211.002 31.8H211.882L213.722 25H217.082L218.922 31.8H219.802V34.84H218.522V33H212.282V34.84H211.002V31.8ZM217.642 31.8L216.122 26.2H214.682L213.162 31.8H217.642ZM224.355 33.16C223.832 33.16 223.336 33.0587 222.867 32.856C222.408 32.6427 222.003 32.3547 221.651 31.992C221.299 31.6187 221.022 31.176 220.819 30.664C220.616 30.152 220.515 29.5973 220.515 29C220.515 28.4027 220.616 27.848 220.819 27.336C221.022 26.824 221.299 26.3867 221.651 26.024C222.003 25.6507 222.408 25.3627 222.867 25.16C223.336 24.9467 223.832 24.84 224.355 24.84C224.878 24.84 225.32 24.9147 225.683 25.064C226.046 25.2133 226.339 25.3787 226.563 25.56C226.798 25.7413 226.963 25.912 227.059 26.072C227.166 26.2213 227.219 26.296 227.219 26.296H227.235V25H228.515V33H227.235V31.72H227.219C227.219 31.72 227.166 31.8 227.059 31.96C226.963 32.1093 226.798 32.2747 226.563 32.456C226.339 32.6267 226.046 32.7867 225.683 32.936C225.32 33.0853 224.878 33.16 224.355 33.16ZM224.515 31.96C224.899 31.96 225.256 31.8907 225.587 31.752C225.918 31.6027 226.206 31.4 226.451 31.144C226.696 30.8773 226.888 30.5627 227.027 30.2C227.166 29.8373 227.235 29.4373 227.235 29C227.235 28.5627 227.166 28.1627 227.027 27.8C226.888 27.4373 226.696 27.128 226.451 26.872C226.206 26.6053 225.918 26.4027 225.587 26.264C225.256 26.1147 224.899 26.04 224.515 26.04C224.131 26.04 223.774 26.1147 223.443 26.264C223.112 26.4027 222.824 26.6053 222.579 26.872C222.334 27.128 222.142 27.4373 222.003 27.8C221.864 28.1627 221.795 28.5627 221.795 29C221.795 29.4373 221.864 29.8373 222.003 30.2C222.142 30.5627 222.334 30.8773 222.579 31.144C222.824 31.4 223.112 31.6027 223.443 31.752C223.774 31.8907 224.131 31.96 224.515 31.96ZM232.761 28.76L229.961 25H231.481L233.881 28.2H235.241V25H236.521V28.2H237.881L240.281 25H241.801L239.001 28.76L242.041 33H240.441L237.881 29.4H236.521V33H235.241V29.4H233.881L231.321 33H229.721L232.761 28.76Z" fill="white"/>
<path d="M135 38L135 20" stroke="#F0F0F0"/>
<g clip-path="url(#clip0_922_4476)">
<path d="M104.065 34.189L97.4509 25.264H94.9597V35.1026H96.3874V26.1776L102.972 35.1026H105.478V25.264H104.065V34.189Z" fill="white"/>
<path d="M37.9102 25.264L32.884 35.1026H34.472L35.9871 32.1229H42.2371L43.7522 35.1026H45.3547L40.3286 25.264H37.9102ZM36.6282 30.8861L39.1194 26.023L41.596 30.8861H36.6282Z" fill="white"/>
<path d="M86.3494 25.264L81.3232 35.1026H82.9112L84.4263 32.1229H90.6763L92.1914 35.1026H93.7939L88.7678 25.264H86.3494ZM85.0674 30.8861L87.5586 26.023L90.0353 30.8861H85.0674Z" fill="white"/>
<path d="M73.4991 25.264H72.0859V35.1026H80.7251V33.8658H73.4991V25.264Z" fill="white"/>
<path d="M70.5147 25.264H68.4022L60.1855 31.8418V25.264H58.7578V35.1026H60.1855V33.4863L65.168 29.5227L68.9121 35.1026H70.6166L66.2752 28.6372L70.5147 25.264Z" fill="white"/>
<path d="M56.2671 30.352C56.6314 29.8881 56.8353 29.2697 56.8644 28.4826C56.8644 27.9485 56.777 27.4847 56.6022 27.0771C56.442 26.6695 56.1943 26.3462 55.8884 26.0792C55.5824 25.8121 55.2182 25.6013 54.7811 25.4748C54.3441 25.3343 53.8633 25.264 53.3243 25.264H46.5208V35.1026H47.9485V31.5045H53.2369L55.3493 35.0886H57.0247L54.7666 31.3218C55.4076 31.1391 55.9029 30.8158 56.2671 30.352ZM52.8435 30.2676H47.9485V26.5008H53.0038C53.7905 26.5008 54.3732 26.6695 54.7666 27.0068C55.1599 27.3301 55.3493 27.7939 55.3493 28.3983C55.3493 29.0027 55.1454 29.4665 54.7229 29.7898C54.3149 30.113 53.6885 30.2676 52.8435 30.2676Z" fill="white"/>
<path d="M31.3239 26.0795C31.018 25.8125 30.6537 25.6017 30.2167 25.4752C29.7796 25.3346 29.2989 25.2643 28.7598 25.2643H22V35.103H23.4277V31.5049H28.7598C29.2843 31.5049 29.7651 31.4486 30.1875 31.3221C30.61 31.1956 30.9743 31.0129 31.2802 30.774C31.5861 30.535 31.8338 30.2118 32.0086 29.8323C32.1834 29.4528 32.2854 29.003 32.3 28.483C32.3 27.9489 32.2126 27.4851 32.0378 27.0775C31.8775 26.6699 31.6298 26.3466 31.3239 26.0795ZM30.2167 29.7901C29.8379 30.1134 29.328 30.268 28.7016 30.268H23.4277V26.5012H28.7016C29.328 26.5012 29.8379 26.6699 30.2167 27.0072C30.5955 27.3305 30.7849 27.7943 30.7849 28.3987C30.7849 29.003 30.5955 29.4668 30.2167 29.7901Z" fill="white"/>
<path d="M117.731 28.0891C117.688 27.9766 117.644 27.8642 117.6 27.7658C117.586 27.7237 117.557 27.6815 117.542 27.6393C117.396 27.3442 117.236 27.0771 117.047 26.8382C116.77 26.5009 116.435 26.2338 116.041 26.023C115.969 25.9808 115.881 25.9386 115.794 25.8965C115.779 25.8824 115.75 25.8824 115.735 25.8684C115.532 25.77 115.313 25.6856 115.094 25.6154C115.007 25.5873 114.905 25.5592 114.803 25.531C114.366 25.4186 113.914 25.3483 113.434 25.3062C113.405 25.3062 113.375 25.3062 113.346 25.3062C112.909 25.278 112.472 25.2499 112.05 25.2499H107.519V35.0886H112.807C113.638 35.0886 114.366 34.9902 115.007 34.8075C115.648 34.6107 116.187 34.3015 116.624 33.8939C117.076 33.4863 117.411 32.9522 117.629 32.2916C117.863 31.631 117.979 30.8439 117.979 29.9022V29.8319C117.979 29.1573 117.892 28.581 117.731 28.0891ZM116.304 31.631C116.202 32.0948 116.012 32.5024 115.706 32.8397C115.415 33.163 114.992 33.416 114.453 33.5987C113.914 33.7814 113.201 33.8658 112.312 33.8658H108.947V26.5009H112.137C112.924 26.5149 113.594 26.5852 114.133 26.7257C114.439 26.796 114.73 26.8944 114.963 27.0209C115.153 27.1193 115.328 27.2317 115.473 27.3582C115.823 27.6393 116.071 28.0048 116.231 28.4405C116.245 28.4826 116.26 28.5248 116.275 28.5529C116.406 28.9746 116.464 29.4524 116.464 30.0287C116.464 30.619 116.406 31.1531 116.304 31.631Z" fill="white"/>
<path d="M115.954 18.782C114.293 20.5249 113.506 23.4905 113.36 25.3177C113.389 25.3177 113.419 25.3177 113.448 25.3177C113.929 25.3599 114.38 25.4301 114.817 25.5426C114.919 25.5707 115.007 25.5988 115.109 25.6269C116.041 24.4322 117.862 22.5488 118.998 21.5931C118.998 21.5931 117.017 24.0949 115.75 25.8799C115.429 26.3297 115.167 26.7232 114.977 27.0324C115.167 27.1308 115.342 27.2432 115.487 27.3697C115.837 27.6508 116.085 28.0163 116.245 28.452C116.26 28.4942 116.274 28.5363 116.289 28.5644C116.667 28.3255 117.134 28.0725 117.629 27.7633C118.416 27.2854 119.319 26.7092 120.208 25.9783C120.645 25.6269 121.111 25.2052 121.621 24.6711C123.427 22.7456 125.001 19.3021 125.001 16.3083C121.694 15.4228 118.124 16.5051 115.954 18.782Z" fill="#79B43E"/>
</g>
<defs>
<clipPath id="clip0_922_4476">
<rect width="103" height="24" fill="white" transform="translate(22 16)"/>
</clipPath>
</defs>
</svg>
