<svg width="110" height="110" viewBox="0 0 110 110" fill="none" xmlns="http://www.w3.org/2000/svg">
<circle cx="55" cy="55" r="55" fill="#2D2D2D"/>
<g clip-path="url(#clip0_938_3615)">
<path d="M41.643 74.2738C41.7927 74.2738 41.9363 74.3374 42.0421 74.4506C42.148 74.5638 42.2075 74.7173 42.2075 74.8774V77.5109C42.1762 77.5508 42.1268 77.6101 42.0583 77.6898C41.9166 77.8357 41.7661 77.9715 41.6077 78.0962C41.3765 78.2895 41.1299 78.4608 40.8708 78.6082C40.5464 78.7824 40.2049 78.9175 39.8527 79.0114C39.4308 79.1361 38.9951 79.1996 38.5574 79.2C37.2805 79.2 36.2009 78.7545 35.3185 77.8634C34.4362 76.9722 33.9967 75.8997 34 74.6457C34 73.3924 34.4395 72.3234 35.3185 71.4387C36.1975 70.5541 37.2772 70.1086 38.5574 70.1021C38.982 70.1002 39.405 70.1604 39.8144 70.2811C40.1581 70.3755 40.4879 70.5207 40.7942 70.7122C41.0306 70.867 41.2575 71.0377 41.4736 71.2232C41.6288 71.3507 41.771 71.4952 41.898 71.6544L42.0321 71.8365L40.891 73.0223L40.7902 72.8854C40.7061 72.7774 40.6145 72.6765 40.516 72.5835C40.3734 72.4418 40.2173 72.3164 40.0503 72.2095C39.8416 72.0835 39.6201 71.9837 39.39 71.912C39.1193 71.821 38.8371 71.7748 38.5533 71.7751C38.191 71.7643 37.8304 71.8313 37.4928 71.9722C37.1551 72.1131 36.8473 72.325 36.5877 72.5954C36.0817 73.1379 35.7975 73.873 35.7975 74.6392C35.7975 75.4055 36.0817 76.1404 36.5877 76.683C36.847 76.9541 37.1546 77.1666 37.4923 77.3078C37.83 77.4492 38.1909 77.5164 38.5533 77.5055C38.9011 77.5099 39.2471 77.4512 39.5765 77.3319C39.8109 77.2571 40.031 77.1385 40.2267 76.9816L40.4081 76.8231V75.6428H38.9142V74.2738H41.643Z" fill="white"/>
<path d="M45.1396 77.0441L44.5086 78.8453C44.4736 78.9458 44.4108 79.0323 44.3284 79.0934C44.2461 79.1545 44.1482 79.1872 44.048 79.187H42.3877L45.8292 70.0913H47.8241L51.2645 79.187H49.6244C49.5195 79.187 49.417 79.1527 49.3308 79.0887C49.2445 79.0248 49.1785 78.9342 49.1416 78.8291L48.5156 77.0441H45.1396ZM46.8291 72.369L45.7616 75.356H47.8916L46.8291 72.369Z" fill="white"/>
<path d="M52.0293 71.8505V70.0923H58.7468V71.2501C58.7465 71.6371 58.6163 72.0112 58.38 72.3043L54.247 77.4385H58.7468V79.1881H52.0293V78.0239C52.0295 77.645 52.1536 77.2782 52.3801 76.9869L56.3699 71.8505H52.0293Z" fill="white"/>
<path d="M63.1562 70.0923C64.429 70.0923 65.4968 70.5321 66.3597 71.4117C66.7682 71.8284 67.0934 72.3293 67.3156 72.8843C67.5377 73.4392 67.6522 74.0366 67.6522 74.6402C67.6522 75.2438 67.5377 75.8412 67.3156 76.3962C67.0934 76.9511 66.7682 77.4521 66.3597 77.8686C65.4968 78.7483 64.429 79.1881 63.1562 79.1881H59.9062V70.0923H63.1562ZM61.7833 71.8505V77.4385H63.1562C63.5007 77.4444 63.8427 77.3753 64.1615 77.2356C64.4803 77.0959 64.7693 76.8884 65.011 76.6258C65.2597 76.3699 65.4563 76.0619 65.5885 75.7209C65.7206 75.38 65.7855 75.0135 65.7791 74.6445C65.7839 74.2755 65.7193 73.9091 65.5892 73.5673C65.459 73.2254 65.266 72.915 65.0216 72.6544C64.7772 72.3938 64.4863 72.1884 64.1662 72.0503C63.8461 71.9122 63.5033 71.8442 63.1582 71.8505H61.7833Z" fill="white"/>
<path d="M70.4043 77.0441L69.7763 78.8378C69.7402 78.9404 69.6757 79.0288 69.5914 79.0912C69.5071 79.1536 69.4071 79.187 69.3045 79.187H67.6523L71.0958 70.0923H73.0907L76.5312 79.1881H74.878C74.7755 79.1881 74.6754 79.1547 74.5911 79.0922C74.5068 79.0298 74.4423 78.9414 74.4063 78.8388L73.7782 77.0441H70.4043ZM72.0938 72.369L71.0263 75.356H73.1553L72.0938 72.369Z" fill="white"/>
<path d="M75.3358 45.0904C74.1281 44.9099 72.9351 44.6306 71.7673 44.255C69.4821 43.5101 67.3652 42.3524 65.3834 40.9327C63.3582 39.4764 61.4924 37.7894 59.5196 36.2555C58.5475 35.4902 57.538 34.7806 56.4955 34.1298C55.4657 33.4953 54.3928 32.9444 53.2859 32.4816C51.0118 31.5244 48.5935 31.0156 46.1581 30.8571C45.5966 30.8205 45.0331 30.8 44.4706 30.8L34.0283 41.1052V42.9873L44.4706 33.6328C46.9151 33.6479 49.3646 33.9379 51.7114 34.6914C54.0137 35.4309 56.1467 36.6004 58.1699 37.9802C60.2232 39.3816 62.1667 40.964 64.2554 42.3103C66.3047 43.6319 68.4892 44.6916 70.8258 45.2898C72.6949 45.7511 74.6105 45.9612 76.5283 45.915V45.2445C76.1318 45.2021 75.7343 45.1507 75.3358 45.0904Z" fill="white"/>
<path d="M71.5818 48.3437C69.3704 47.7113 67.2404 46.7896 65.2402 45.5992C63.1929 44.3983 61.2635 42.9884 59.2464 41.7336C57.2596 40.5015 55.177 39.4451 52.9744 38.7316C50.7497 38.0104 48.4564 37.6536 46.1409 37.5038C45.5845 37.4685 45.028 37.4499 44.4716 37.4477L34.0293 45.5205V47.4004L44.4716 40.2795C45.0593 40.2795 45.651 40.314 46.2387 40.3442C46.8264 40.3744 47.404 40.4196 47.9856 40.481C49.1468 40.5991 50.3001 40.7932 51.4392 41.0621C53.6962 41.6011 55.8574 42.4807 57.9239 43.5812C60.0176 44.6969 62.0236 45.9991 64.1304 47.0825C66.1969 48.1485 68.3641 48.9882 70.6232 49.4464C71.7766 49.6754 72.9426 49.8244 74.114 49.8927C74.9204 49.9433 75.7269 49.939 76.5333 49.9153V49.2448C76.0293 49.1931 75.5253 49.137 75.0212 49.0605C73.8623 48.8959 72.7137 48.6565 71.5818 48.3437Z" fill="white"/>
<path d="M66.7804 50.9986C65.6776 50.5674 64.597 50.0597 63.5285 49.5358C61.3834 48.4827 59.2806 47.3336 57.077 46.4303C54.8813 45.5368 52.6 44.9049 50.2748 44.546C48.5077 44.269 46.7325 44.1612 44.9493 44.1083L44.4745 44.0954L34.0322 49.9767V51.8588L44.4715 46.925C46.8595 46.9628 49.2455 47.1051 51.6044 47.5266C52.7623 47.7352 53.9095 48.0065 55.0418 48.3393C56.1769 48.6713 57.2887 49.0831 58.3905 49.5251C60.6183 50.4187 62.7926 51.4492 65.0476 52.2512C67.2705 53.0377 69.5704 53.5491 71.9023 53.7754C73.1036 53.8922 74.31 53.94 75.5161 53.9188C75.8528 53.9188 76.1884 53.9037 76.5241 53.8907V53.2213C74.3766 53.0424 72.2468 52.6732 70.1564 52.1175C69.014 51.806 67.8873 51.4325 66.7804 50.9986Z" fill="white"/>
<path d="M72.2279 56.6784C70.0217 56.3365 67.8394 55.8366 65.6959 55.1822C63.5497 54.5279 61.447 53.7302 59.317 53.0262C57.1893 52.3138 55.0164 51.7663 52.8151 51.3878C50.595 51.0243 48.3551 50.8165 46.1096 50.7658C45.5633 50.75 45.0173 50.7421 44.4716 50.7421L34.0293 54.3532V56.2396L44.4716 53.5803C46.6379 53.5879 48.8062 53.6558 50.9634 53.8714C53.1894 54.0898 55.3995 54.4658 57.5791 54.9967C59.7565 55.5358 61.9026 56.1922 64.08 56.7215C66.2476 57.2597 68.4505 57.6201 70.6695 57.7994C72.62 57.9417 74.5764 57.9644 76.5292 57.8674V57.1796C76.2006 57.1505 75.872 57.1214 75.5434 57.0902C74.4356 56.9845 73.3297 56.8487 72.2279 56.6784Z" fill="white"/>
<path d="M67.586 60.1968C65.1949 59.8249 62.821 59.3517 60.442 58.9032C58.063 58.4549 55.6961 58.0743 53.302 57.8253C50.9079 57.5763 48.528 57.4599 46.1339 57.4189C45.5795 57.4092 45.025 57.3985 44.4716 57.3931L34.0283 59.0919V60.9729L44.4716 60.2184C45.3668 60.2259 46.2619 60.2302 47.156 60.2432C49.0017 60.2712 50.8495 60.3262 52.6932 60.4404C55.0721 60.5871 57.4441 60.8145 59.812 61.1088C62.2151 61.4084 64.6173 61.6962 67.0336 61.8633C69.4337 62.0251 71.8369 62.0261 74.2411 61.9614C74.8398 61.9442 75.4376 61.914 76.0364 61.8817L76.5293 61.8536V61.1799C75.9426 61.1357 75.356 61.0915 74.7693 61.0387C72.3691 60.822 69.971 60.5666 67.586 60.1968Z" fill="white"/>
<path d="M53.6568 63.9578C51.5762 63.7336 49.4815 63.7314 47.3899 63.6926C46.4167 63.6746 45.4423 63.6635 44.4665 63.6592L34.0293 64.0009V66.0371H76.5292V65.0896C75.2964 65.0777 73.4346 65.0605 72.4971 65.0238C66.2845 64.7835 65.9831 65.2804 53.6568 63.9578Z" fill="white"/>
</g>
<defs>
<clipPath id="clip0_938_3615">
<rect width="42.5333" height="48.4" fill="white" transform="translate(34 30.8)"/>
</clipPath>
</defs>
</svg>
