<svg width="45" height="45" viewBox="0 0 45 45" fill="none" xmlns="http://www.w3.org/2000/svg">
<rect width="45" height="45" rx="22.5" fill="#79B43E"/>
<path d="M29.7151 28.5198C29.5206 28.1831 29.09 28.0677 28.7533 28.2621L26.924 29.3182L25.8679 27.489L27.6971 26.4329C28.0339 26.2385 28.1493 25.8079 27.9549 25.4711C27.7604 25.1343 27.3298 25.0189 26.9931 25.2134L25.1638 26.2695L21.9638 20.7269C23.7616 19.2399 24.0137 16.5771 22.5267 14.7792C21.0397 12.9814 18.3768 12.7294 16.5789 14.2163C14.7811 15.7033 14.5291 18.3662 16.0161 20.164C17.162 21.5495 19.0592 22.0578 20.7443 21.4309L26.0566 30.6321C26.251 30.9688 26.6816 31.0842 27.0184 30.8898L29.4574 29.4816C29.7941 29.2872 29.9095 28.8566 29.7151 28.5198ZM16.8345 18.8835C16.0568 17.5365 16.5184 15.814 17.8654 15.0363C19.2124 14.2586 20.9348 14.7201 21.7125 16.0672C22.4902 17.4142 22.0287 19.1366 20.6817 19.9143C19.3347 20.692 17.6122 20.2305 16.8345 18.8835Z" fill="#FAFAFA"/>
</svg>
