<svg width="68" height="33" viewBox="0 0 68 33" fill="none" xmlns="http://www.w3.org/2000/svg">
<path d="M58.9651 22.9528C58.9093 22.8034 58.8534 22.6539 58.7976 22.5232C58.7789 22.4671 58.7417 22.4111 58.7231 22.355C58.5369 21.9627 58.3321 21.6078 58.0901 21.2902C57.7364 20.8418 57.3081 20.4869 56.8055 20.2067C56.7124 20.1506 56.6007 20.0946 56.489 20.0385C56.4703 20.0199 56.4331 20.0199 56.4145 20.0012C56.1538 19.8704 55.8746 19.7583 55.5953 19.6649C55.4836 19.6276 55.3533 19.5902 55.223 19.5528C54.6644 19.4034 54.0873 19.31 53.4729 19.2539C53.4356 19.2539 53.3984 19.2539 53.3612 19.2539C52.8026 19.2166 52.2441 19.1792 51.7042 19.1792H45.9141V32.2562H52.6723C53.7335 32.2562 54.6644 32.1254 55.4836 31.8825C56.3028 31.621 56.9916 31.21 57.5502 30.6682C58.1273 30.1265 58.5555 29.4166 58.8348 28.5386C59.1327 27.6605 59.2816 26.6144 59.2816 25.3627V25.2693C59.2816 24.3726 59.1699 23.6067 58.9651 22.9528ZM57.1406 27.6605C57.0103 28.277 56.7682 28.8188 56.3773 29.2671C56.0049 29.6968 55.465 30.0331 54.7761 30.2759C54.0873 30.5188 53.175 30.6309 52.0393 30.6309H47.7386V20.8418H51.8159C52.8213 20.8605 53.6777 20.9539 54.3665 21.1407C54.7575 21.2342 55.1299 21.3649 55.4277 21.5331C55.6698 21.6638 55.8932 21.8133 56.0794 21.9814C56.5262 22.355 56.8427 22.8407 57.0475 23.4199C57.0661 23.4759 57.0847 23.532 57.1033 23.5693C57.2709 24.1298 57.3454 24.7649 57.3454 25.5309C57.3454 26.3155 57.2709 27.0254 57.1406 27.6605Z" fill="#2D2D2D"/>
<path d="M56.4814 10.4156C54.3668 12.7535 53.3652 16.7318 53.1797 19.1829C53.2168 19.1829 53.2539 19.1829 53.291 19.1829C53.9031 19.2395 54.4781 19.3338 55.0346 19.4846C55.1644 19.5223 55.2757 19.56 55.4056 19.5977C56.5927 17.9951 58.9113 15.4686 60.3581 14.1865C60.3581 14.1865 57.8355 17.5426 56.2217 19.9371C55.8136 20.5405 55.4798 21.0684 55.2386 21.4832C55.4798 21.6152 55.7023 21.766 55.8878 21.9357C56.333 22.3128 56.6483 22.803 56.8524 23.3875C56.8709 23.4441 56.8895 23.5006 56.908 23.5383C57.3903 23.2178 57.9839 22.8784 58.6145 22.4636C59.6162 21.8226 60.7662 21.0495 61.8977 20.0691C62.4541 19.5977 63.0477 19.0321 63.6969 18.3156C65.997 15.7326 68.0002 11.1132 68.0002 7.09716C63.7897 5.90932 59.2452 7.36113 56.4814 10.4156Z" fill="#79B43E"/>
<path d="M1.84315 8.36315V13.1851H0V0H8.72676C9.41638 0 10.0433 0.0941795 10.6075 0.282539C11.1718 0.458341 11.6482 0.728323 12.0369 1.09248C12.4381 1.44409 12.7453 1.88987 12.9585 2.42983C13.1842 2.9698 13.297 3.59766 13.297 4.31343C13.2719 5.00408 13.1466 5.60683 12.9209 6.12167C12.6952 6.63652 12.3817 7.05719 11.9805 7.38368C11.5918 7.71017 11.1216 7.95504 10.5699 8.11828C10.0182 8.28153 9.40384 8.36315 8.72676 8.36315H1.84315ZM1.84315 6.70559H8.65153C9.46653 6.70559 10.1185 6.49211 10.6075 6.06517C11.0965 5.63822 11.341 5.01663 11.341 4.20041C11.341 3.39674 11.0965 2.77516 10.6075 2.33565C10.1185 1.88359 9.46653 1.65756 8.65153 1.65756H1.84315V6.70559Z" fill="#2D2D2D"/>
<path d="M18.0486 9.19193L16.0926 13.1851H14.0426L20.5312 0H23.6533L30.1419 13.1851H28.0731L26.1171 9.19193H18.0486ZM18.8761 7.53437H25.2896L22.0923 1.01714L18.8761 7.53437Z" fill="#2D2D2D"/>
<path d="M33.4893 8.36315V13.1851H31.6461V0H40.4293C41.1189 0 41.7458 0.0941795 42.3101 0.282539C42.8743 0.458341 43.3507 0.728323 43.7394 1.09248C44.1407 1.44409 44.4479 1.88987 44.661 2.42983C44.8867 2.9698 44.9996 3.59766 44.9996 4.31343C44.9619 5.36824 44.7049 6.2033 44.2284 6.8186C43.7645 7.43391 43.1188 7.86714 42.2913 8.11828L45.2064 13.1663H43.0436L40.3164 8.36315H33.4893ZM33.4893 6.70559H39.8086C40.8995 6.70559 41.7082 6.49211 42.2348 6.06517C42.774 5.63822 43.0436 5.01663 43.0436 4.20041C43.0436 3.39674 42.7928 2.77516 42.2913 2.33565C41.7897 1.88359 41.0311 1.65756 40.0155 1.65756H33.4893V6.70559Z" fill="#2D2D2D"/>
<path d="M49.3031 11.019V13.1851H47.46V0H49.3031V8.81521L59.9107 0H62.6378L57.1647 4.52062L62.7694 13.1851H60.5689L55.7354 5.70728L49.3031 11.019Z" fill="#2D2D2D"/>
<path d="M11.1718 30.599V32.2565H0V19.0714H1.84315V30.599H11.1718Z" fill="#2D2D2D"/>
<path d="M15.9364 28.2633L13.9804 32.2565H11.9304L18.419 19.0714H21.5411L28.0298 32.2565H25.9609L24.0049 28.2633H15.9364ZM16.764 26.6057H23.1774L19.9801 20.0885L16.764 26.6057Z" fill="#2D2D2D"/>
<path d="M31.3771 20.2957V32.2565H29.5339V19.0714H32.75L41.2887 31.0322V19.0714H43.1131V32.2565H39.8781L31.3771 20.2957Z" fill="#2D2D2D"/>
</svg>
