<svg width="45" height="45" viewBox="0 0 45 45" fill="none" xmlns="http://www.w3.org/2000/svg">
<rect x="0.5" y="0.5" width="44" height="44" rx="22" stroke="#79B43E"/>
<path d="M29.3469 25.906V27.9678C29.3476 28.1592 29.3111 28.3487 29.2398 28.524C29.1684 28.6994 29.0638 28.8568 28.9326 28.9862C28.8014 29.1156 28.6464 29.2141 28.4777 29.2754C28.309 29.3367 28.1303 29.3595 27.9529 29.3423C25.9853 29.1125 24.0953 28.3899 22.4347 27.2324C20.8897 26.1773 19.5798 24.7695 18.5981 23.1089C17.5175 21.3161 16.845 19.2748 16.6351 17.1505C16.6191 16.9604 16.6401 16.7689 16.6968 16.5881C16.7534 16.4072 16.8445 16.241 16.9642 16.1001C17.0839 15.9592 17.2296 15.8466 17.392 15.7695C17.5544 15.6924 17.73 15.6525 17.9075 15.6523H19.8258C20.1361 15.649 20.437 15.7671 20.6723 15.9846C20.9076 16.2021 21.0612 16.5041 21.1047 16.8344C21.1856 17.4942 21.3358 18.142 21.5523 18.7655C21.6383 19.0115 21.6569 19.2788 21.6059 19.5359C21.5549 19.7929 21.4364 20.0288 21.2645 20.2156L20.4525 21.0884C21.3627 22.809 22.6882 24.2336 24.289 25.2119L25.1011 24.3391C25.2749 24.1543 25.4944 24.027 25.7336 23.9722C25.9727 23.9174 26.2214 23.9374 26.4503 24.0299C27.0304 24.2625 27.6332 24.4239 28.2471 24.5109C28.5577 24.558 28.8413 24.7262 29.0441 24.9834C29.2469 25.2406 29.3547 25.569 29.3469 25.906Z" stroke="#435055" stroke-linecap="round" stroke-linejoin="round"/>
</svg>
