<svg width="18" height="19" viewBox="0 0 18 19" fill="none" xmlns="http://www.w3.org/2000/svg">
<path fill-rule="evenodd" clip-rule="evenodd" d="M14.6739 5.3913V1.72585C14.6739 1.04883 14.1255 0.5 13.4481 0.5H1.22585C0.54883 0.5 0 1.04845 0 1.72585V13.9481C0 14.6251 0.548452 15.1739 1.22585 15.1739H4.8913V17.2741C4.8913 17.9512 5.43976 18.5 6.11715 18.5H16.7742C17.4512 18.5 18 17.9515 18 17.2741V6.61716C18 5.94014 17.4515 5.3913 16.7742 5.3913H14.6739ZM14.6739 6.61413H16.4749C16.6398 6.61413 16.7772 6.74946 16.7772 6.9164V16.9749C16.7772 17.1398 16.6418 17.2772 16.4749 17.2772H6.4164C6.25146 17.2772 6.11413 17.1418 6.11413 16.9749V15.1739H13.4481C14.1251 15.1739 14.6739 14.6255 14.6739 13.9481V6.61413ZM13.4511 2.0251V13.6488C13.4511 13.8138 13.3158 13.9511 13.1488 13.9511H1.5251C1.36016 13.9511 1.22283 13.8158 1.22283 13.6488V2.0251C1.22283 1.86016 1.35816 1.72283 1.5251 1.72283H13.1488C13.3138 1.72283 13.4511 1.85816 13.4511 2.0251Z" fill="#2D2D2D"/>
</svg>
