<svg width="79" height="84" viewBox="0 0 79 84" fill="none" xmlns="http://www.w3.org/2000/svg">
<path d="M78.8597 0H0.98877V84H78.8597V0Z" fill="white"/>
<path d="M12.1194 59.8804C12.1194 60.2548 12.599 60.4018 14.3589 60.4018C16.2948 60.4018 16.5393 60.2765 16.5393 60.0428C16.5393 59.7937 16.4069 59.6684 14.0786 59.5957C10.9388 59.4935 10.1041 58.9783 10.1041 57.8409C10.1041 56.6294 11.2129 55.998 14.2125 55.998C17.4052 55.998 18.4098 56.3942 18.4098 57.6723C18.4098 57.7822 18.4098 57.892 18.402 58.0174C18.1808 58.0034 17.7884 57.9957 17.4115 57.9957C17.0206 57.9957 16.6281 58.0034 16.4069 58.0174V57.8781C16.4069 57.5036 16.1406 57.3783 14.1829 57.3783C12.3795 57.3783 12.1147 57.4882 12.1147 57.7094C12.1147 57.9292 12.2549 58.0251 14.7312 58.1504C17.6653 58.2974 18.5655 58.7229 18.5655 59.9562C18.5655 61.2405 17.5392 61.8579 14.3838 61.8579C11.1615 61.8579 10.062 61.3225 10.062 60.2053C10.062 60.0738 10.0698 59.933 10.0916 59.7875C10.3501 59.8169 10.741 59.8386 11.1117 59.8386C11.4886 59.8386 11.8437 59.8309 12.124 59.8169V59.8804H12.1194Z" fill="black"/>
<path d="M28.2552 61.6796C28.2848 60.8936 28.3066 60.1308 28.3144 59.2209C28.3144 58.8465 28.3439 58.4426 28.3657 58.0542L28.3144 58.0403C28.129 58.407 27.9234 58.7892 27.6711 59.1126L25.7197 61.6827H24.7074L22.5208 58.7908C22.2763 58.4674 22.0629 58.0867 21.8776 57.7339L21.8262 57.7479C21.848 58.1301 21.8776 58.5107 21.8854 58.93C21.8932 59.9575 21.915 60.8162 21.9586 61.6827H19.9775C20.0211 60.8905 20.0367 60.089 20.0367 58.9223C20.0367 57.7185 20.0227 56.8953 19.9993 56.1758H22.9693C23.3758 56.77 23.9816 57.6659 24.7432 58.7598C24.9426 59.0383 25.1575 59.354 25.3646 59.6774H25.4082C25.6076 59.3463 25.7991 59.0306 25.9845 58.7598C26.6931 57.7107 27.3581 56.756 27.7584 56.1758H30.381C30.3592 56.8953 30.3374 57.7169 30.3374 58.9223C30.3374 60.089 30.3452 60.8905 30.3966 61.6827H28.2552V61.6796Z" fill="black"/>
<path d="M38.9304 61.6793C38.8635 61.5184 38.6859 61.1579 38.443 60.7107C37.6752 60.703 36.898 60.7029 36.3077 60.7029C35.7689 60.7029 34.9777 60.703 34.2317 60.7107C33.9809 61.1285 33.7816 61.4813 33.685 61.6793H31.2539C32.3098 60.2264 34.3578 57.1425 34.8375 56.1738H37.9119C38.4149 57.1425 40.4614 60.1892 41.5625 61.6793H38.9304ZM35.8499 58.074C35.5991 58.4701 35.311 58.9328 35.0291 59.3954C35.4948 59.4032 35.9604 59.4032 36.3155 59.4032C36.7002 59.4032 37.2017 59.4032 37.7047 59.3954C37.4306 58.925 37.1425 58.4562 36.884 58.0585C36.655 57.7134 36.4931 57.4272 36.3669 57.1997L35.8499 58.074Z" fill="black"/>
<path d="M48.7105 59.4254C50.0031 59.5507 50.595 59.7565 50.8317 60.5921C50.9641 61.0687 51.0824 61.4664 51.179 61.6784H49.3397C49.0079 61.6784 48.9488 61.6056 48.7634 60.8861C48.6015 60.2393 48.3569 60.1217 47.0129 60.1217H44.3684C44.3824 60.7453 44.412 61.2822 44.4572 61.6784H42.3438C42.3578 60.8784 42.3733 60.1078 42.3733 58.9256C42.3733 57.7589 42.3656 56.9651 42.3438 56.1729H47.8414C49.8443 56.1729 50.7819 56.6943 50.7819 57.81C50.7819 58.7569 50.1604 59.2413 48.7136 59.396V59.4254H48.7105ZM47.1951 58.7508C48.385 58.7508 48.8133 58.5527 48.8133 58.1488C48.8133 57.731 48.3928 57.5902 47.2169 57.5902C46.6547 57.5902 45.0817 57.598 44.3357 57.6196C44.3357 57.9941 44.3357 58.3686 44.3435 58.7275C44.8761 58.7508 46.0052 58.7508 47.1951 58.7508Z" fill="black"/>
<path d="M59.4746 56.1729C59.4606 56.3864 59.4606 56.7082 59.4606 56.9945C59.4606 57.273 59.4606 57.6181 59.4746 57.8533C58.4482 57.8239 57.4281 57.8239 56.5404 57.8239C56.5404 59.6668 56.5482 61.259 56.57 61.6861C56.2974 61.6644 55.838 61.6644 55.5281 61.6644C55.2181 61.6644 54.7821 61.6644 54.4862 61.6861C54.508 61.2606 54.5235 59.6745 54.5235 57.8239C53.6374 57.8239 52.6173 57.8239 51.5894 57.8533C51.5971 57.6181 51.5971 57.2808 51.5971 56.9945C51.5971 56.7082 51.5971 56.3926 51.5894 56.1729H59.4746Z" fill="black"/>
<path d="M14.7412 70.7368C11.2977 70.7368 9.88672 69.5174 9.88672 67.7194C9.88672 65.8471 11.4457 64.7314 14.7412 64.7314C18.0367 64.7314 19.5957 65.8471 19.5957 67.7194C19.5957 69.519 18.1846 70.7368 14.7412 70.7368ZM17.5196 67.7271C17.5196 66.8235 16.8032 66.3252 14.7412 66.3252C12.6792 66.3252 11.9628 66.825 11.9628 67.7271C11.9628 68.6153 12.6714 69.1445 14.7412 69.1445C16.8188 69.1445 17.5196 68.6153 17.5196 67.7271Z" fill="black"/>
<path d="M27.2964 68.234C28.5891 68.3593 29.1809 68.5651 29.4176 69.4007C29.55 69.8773 29.6684 70.275 29.7649 70.4869H27.9256C27.5939 70.4869 27.5347 70.4142 27.3494 69.6947C27.1874 69.0479 26.9429 68.9303 25.5988 68.9303H22.9543C22.9683 69.5539 22.9979 70.0908 23.0431 70.4869H20.9297C20.9437 69.687 20.9593 68.9164 20.9593 67.7342C20.9593 66.5675 20.9515 65.7737 20.9297 64.9814H26.4274C28.4302 64.9814 29.3678 65.5029 29.3678 66.6185C29.3678 67.5655 28.7464 68.0499 27.2995 68.2046V68.234H27.2964ZM25.781 67.5593C26.9709 67.5593 27.3992 67.3613 27.3992 66.9574C27.3992 66.5396 26.9787 66.3988 25.8029 66.3988C25.2406 66.3988 23.6676 66.4066 22.9216 66.4282C22.9216 66.8027 22.9216 67.1771 22.9294 67.5361C23.4621 67.5593 24.5927 67.5593 25.781 67.5593Z" fill="black"/>
<path d="M37.637 70.4879C37.57 70.327 37.3925 69.9665 37.1495 69.5193C36.3817 69.5115 35.6045 69.5115 35.0143 69.5115C34.4754 69.5115 33.6842 69.5115 32.9382 69.5193C32.6875 69.9371 32.4881 70.2899 32.3916 70.4879H29.9604C31.0164 69.035 33.0644 65.9511 33.5441 64.9824H36.6184C37.1215 65.9511 39.1679 68.9978 40.269 70.4879H37.637ZM34.5564 66.8826C34.3056 67.2787 34.0175 67.7414 33.7356 68.204C34.2013 68.2118 34.667 68.2118 35.0221 68.2118C35.4067 68.2118 35.9082 68.2118 36.4113 68.204C36.1372 67.7336 35.849 67.2648 35.5905 66.8671C35.3616 66.522 35.1996 66.2358 35.0735 66.0083L34.5564 66.8826Z" fill="black"/>
<path d="M49.9439 64.9824C49.9221 65.6586 49.9143 66.5607 49.9143 67.729C49.9143 68.9406 49.9143 69.7545 49.9283 70.4895H47.8227C47.3866 69.9974 45.0894 68.4408 43.8185 67.5603C43.5086 67.3406 43.1909 67.1193 42.9324 66.8857C42.962 67.3267 42.9697 67.7661 42.9838 68.2149C42.9916 69.3522 42.9978 70.1522 43.0211 70.491H41.1211C41.1211 69.7498 41.1429 68.9127 41.1429 67.7383C41.1429 66.5716 41.1429 65.7344 41.1211 64.9855H43.5304C43.803 65.3383 46.3384 67.1286 47.4691 67.9007C47.7355 68.0771 48.0018 68.2164 48.2011 68.4067C48.1715 68.0029 48.1575 67.6145 48.1575 67.3128C48.1575 66.293 48.1357 65.3755 48.1061 64.9855H49.9439V64.9824Z" fill="black"/>
<path d="M56.1949 70.6649C53.0847 70.6649 51.2734 69.7768 51.2734 67.6987C51.2734 65.5107 53.1579 64.8066 56.0843 64.8066C58.8768 64.8066 60.6055 65.2616 60.6055 66.9064C60.6055 66.9575 60.6055 67.0163 60.5977 67.0673C60.3766 67.0519 59.9841 67.0457 59.6072 67.0457C59.2007 67.0457 58.816 67.0534 58.5871 67.0673C58.5871 67.0379 58.5949 67.0085 58.5949 66.9791C58.5949 66.4654 57.8925 66.3029 56.075 66.3029C54.1531 66.3029 53.3557 66.6929 53.3557 67.7342C53.3557 68.6812 54.1017 69.1872 56.1933 69.1872C57.7523 69.1872 58.4391 68.952 58.6385 68.4538C57.6121 68.4538 56.2291 68.4615 55.3134 68.4832C55.3212 68.3733 55.3212 68.1381 55.3212 68.0282C55.3212 67.8302 55.3212 67.6538 55.3134 67.5145C56.511 67.5362 57.7367 67.53 58.6307 67.53C59.1773 67.53 59.8797 67.5377 60.6117 67.5145C60.7472 69.4967 60.2442 70.6649 56.1949 70.6649Z" fill="black"/>
<path d="M69.9589 64.9824C69.9511 65.1433 69.9449 65.4002 69.9449 65.6292C69.9449 65.8644 69.9449 66.129 69.9589 66.2822C68.4217 66.2745 65.6433 66.2683 64.2619 66.2683V67.1131C65.8582 67.1131 68.6429 67.1131 69.8779 67.0915C69.8701 67.3777 69.8639 67.9657 69.8701 68.2737C68.6585 68.2597 65.8426 68.2443 64.2619 68.2443V69.103C65.6433 69.103 68.5183 69.0953 69.9589 69.0891C69.9449 69.2655 69.9449 69.544 69.9449 69.8009C69.9449 70.0361 69.9449 70.3069 69.9589 70.491H62.1484C62.178 69.7421 62.178 68.9127 62.178 67.7383C62.178 66.5716 62.178 65.7267 62.1484 64.9855H69.9589V64.9824Z" fill="black"/>
<path d="M19.3653 41.4224C18.937 41.4224 18.5336 41.3744 18.1567 41.2754C16.8672 40.935 15.9701 40.005 15.5574 38.583C12.2852 36.0824 10.3416 32.5514 10.0815 28.6319C9.79647 24.3519 11.5034 20.1508 14.8877 16.8023L15.1119 16.5811L15.196 16.8828C16.4965 21.5744 23.2401 29.6996 30.2267 34.9962L30.3949 35.1231L30.2454 35.2716C26.3036 39.1741 22.2776 41.4224 19.3653 41.4224ZM14.9297 17.2805C11.7682 20.5175 10.178 24.5283 10.449 28.6071C10.7029 32.44 12.6138 35.8921 15.8299 38.3292L15.8798 38.3663L15.8953 38.4251C16.2676 39.7667 17.0603 40.6069 18.2501 40.9195C18.6021 41.0123 18.9821 41.0572 19.3839 41.0572C22.1499 41.0572 26.0092 38.9017 29.8342 35.1571C22.9987 29.9317 16.4295 22.037 14.9297 17.2805Z" fill="black"/>
<path d="M18.4476 41.3213C14.8795 38.6165 11.4314 34.451 10.7617 32.034L11.1168 31.9365C11.7694 34.2885 15.1583 38.3674 18.6703 41.0304L18.4476 41.3213Z" fill="black"/>
<path d="M23.6127 40.1243C17.5279 35.5116 11.6502 28.4154 10.5117 24.3026L10.8668 24.2051C11.9882 28.2514 17.8067 35.2625 23.837 39.8334L23.6127 40.1243Z" fill="black"/>
<path d="M15.6474 38.6448C13.7536 37.8696 12.5544 36.4723 12.1791 34.6C11.4907 31.1664 13.601 26.6218 17.8232 22.4424L18.0833 22.7008C13.9483 26.7936 11.8769 31.2144 12.5404 34.5273C12.8893 36.2727 14.0137 37.5787 15.7876 38.3044L15.6474 38.6448Z" fill="black"/>
<path d="M15.0618 38.9271C14.9621 38.9271 14.8795 38.8946 14.8188 38.8172C14.6926 38.6532 14.4808 38.3808 16.8637 35.6498C18.3884 33.9012 20.5937 31.5941 23.2382 28.9775L23.4983 29.2359C17.6097 35.0649 15.3265 37.9228 15.1396 38.5495C15.2175 38.5278 15.3639 38.469 15.624 38.319L15.8093 38.6346C15.5368 38.7909 15.2658 38.9271 15.0618 38.9271Z" fill="black"/>
<path d="M26.3938 42.0679C24.4938 42.0679 22.6108 41.8002 20.826 41.257C19.8402 41.469 18.94 41.4814 18.1582 41.2756C16.85 40.9305 15.9466 39.9789 15.5433 38.5244L15.3984 38.0013L15.833 38.3309C17.3437 39.476 19.0475 40.3255 20.8541 40.8841C23.4783 40.2899 26.7505 38.218 29.9883 35.0134L30.102 34.9004L30.2297 34.9979C33.1655 37.223 35.2711 38.3356 36.7569 38.8586C38.0449 38.088 39.2503 37.1642 40.3343 36.0903L40.5585 35.8691L40.6426 36.1708C41.1831 38.122 40.6551 38.9638 40.1162 39.3244C39.4076 39.7994 38.2645 39.7638 36.7958 39.2594C33.6234 41.1162 29.9774 42.0679 26.3938 42.0679ZM21.5238 41.0791C26.3471 42.3665 31.8183 41.6578 36.3457 39.0969C34.6217 38.4253 32.4989 37.1689 30.1316 35.3863C27.1274 38.334 24.081 40.3193 21.5238 41.0791ZM16.079 38.9654C16.4995 39.9959 17.2284 40.6536 18.2516 40.9228C18.8045 41.0683 19.4213 41.0977 20.0925 41.0172C18.6675 40.5158 17.3156 39.8335 16.079 38.9654ZM37.2132 39.0071C38.9466 39.5209 39.7004 39.1619 39.9075 39.0226C40.6208 38.5445 40.5726 37.4814 40.3623 36.5731C39.3936 37.5 38.3361 38.3124 37.2132 39.0071Z" fill="black"/>
<path d="M22.9618 43.5416C21.9526 43.5416 20.3454 42.7618 18.4453 41.3212L18.668 41.0303C21.3717 43.0805 22.9322 43.4039 23.4477 43.0589C23.8044 42.819 23.7281 42.2248 23.6019 41.7684L23.957 41.6709C24.2451 42.7076 23.9508 43.1625 23.6549 43.3622C23.4742 43.4828 23.2406 43.5416 22.9618 43.5416Z" fill="black"/>
<path d="M31.2438 43.9035C29.5603 43.9035 26.8426 42.5744 23.6094 40.1249L23.8321 39.834C27.6851 42.7539 30.9557 44.1186 32.1612 43.3078C32.8355 42.856 32.7047 41.7806 32.4773 40.9574L32.8324 40.8599C33.3027 42.5589 32.8402 43.2939 32.3683 43.6111C32.0755 43.8076 31.6971 43.9035 31.2438 43.9035Z" fill="black"/>
<path d="M25.4475 43.8482C25.0675 43.8482 24.6874 43.8312 24.3106 43.7956C20.7705 43.4675 17.6666 41.6153 15.5703 38.5794L15.874 38.3721C17.908 41.3167 20.9169 43.1132 24.3464 43.4304C28.3988 43.8064 32.677 42.0857 36.0862 38.7109L36.3463 38.9694C33.1738 42.109 29.2585 43.8482 25.4475 43.8482Z" fill="black"/>
<path d="M28.3833 44.1274C28.3147 44.1274 28.2462 44.1274 28.1777 44.1259C23.4338 44.0702 18.9609 42.1081 15.5859 38.6018L15.8523 38.3496C19.1587 41.7832 23.5381 43.705 28.1839 43.7607C28.2509 43.7607 28.3178 43.7623 28.3864 43.7623C32.7082 43.7623 36.7528 42.1112 39.796 39.0985L40.0561 39.3569C36.9397 42.4393 32.8032 44.1274 28.3833 44.1274Z" fill="black"/>
<path d="M26.3936 42.0663C22.4939 42.0663 18.6657 40.9383 15.607 38.6204L15.5571 38.5832L15.5415 38.5244C14.2162 33.7431 18.5645 24.4821 25.2365 17.8796L25.3502 17.7666L25.4779 17.8641C32.5205 23.2025 39.3218 31.4143 40.6409 36.1709L40.669 36.273L40.5926 36.3489C36.7894 40.112 31.5285 42.0663 26.3936 42.0663ZM15.8795 38.3682C22.7991 43.5704 33.6964 42.5816 40.2562 36.1663C38.8951 31.4886 32.2729 23.512 25.3829 18.2525C18.8869 24.7359 14.646 33.7106 15.8795 38.3682Z" fill="black"/>
<path d="M23.6038 41.7666C22.9512 39.4146 19.5638 35.3357 16.0503 32.6727L16.273 32.3818C19.8411 35.0866 23.2876 39.2521 23.9589 41.6691L23.6038 41.7666Z" fill="black"/>
<path d="M32.4809 40.9564C31.3596 36.91 25.5411 29.8989 19.5107 25.328L19.7335 25.0371C25.8183 29.6498 31.6944 36.746 32.8345 40.8589L32.4809 40.9564Z" fill="black"/>
<path d="M19.4413 39.311C18.0381 39.311 16.7517 39.0959 15.6475 38.644L15.7876 38.3067C21.1233 40.4885 30.8152 36.9636 37.3968 30.4492L37.6569 30.7076C32.3305 35.9795 24.9717 39.311 19.4413 39.311Z" fill="black"/>
<path d="M15.8133 38.633L15.6279 38.3173C18.0264 36.9293 25.3634 30.4675 31.984 23.916L32.244 24.1744C25.6048 30.7461 18.235 37.2326 15.8133 38.633Z" fill="black"/>
<path d="M16.04 38.9513L15.6055 38.6217C12.3053 36.1196 10.3429 32.5715 10.0813 28.6335C9.7994 24.386 11.4783 20.2158 14.8112 16.8782C14.3175 14.9997 14.8361 14.1827 15.3656 13.8268C16.9542 12.7606 20.734 14.2693 25.4748 17.8638L25.643 17.9907L25.4935 18.1393C18.9072 24.6598 14.6009 33.7614 15.8936 38.4282L16.04 38.9513ZM16.6645 13.8778C16.0306 13.8778 15.7005 14.0449 15.5727 14.13C14.7769 14.6639 14.928 15.9219 15.1943 16.8844L15.2223 16.9865L15.146 17.0623C11.8396 20.3365 10.1701 24.437 10.4473 28.6087C10.6902 32.2759 12.4517 35.5966 15.4217 38.012C14.5262 33.144 18.7281 24.3906 25.0839 18.0279C20.4817 14.5664 17.9494 13.8778 16.6645 13.8778Z" fill="black"/>
<path d="M16.0475 32.6731C13.3438 30.6244 11.7833 30.2995 11.2678 30.6445C10.9111 30.8844 10.9874 31.4785 11.1136 31.935L10.7585 32.0325C10.4704 30.9958 10.7647 30.5408 11.0606 30.3412C11.8985 29.7795 13.8453 30.5424 16.2702 32.3822L16.0475 32.6731Z" fill="black"/>
<path d="M19.5096 25.3308C15.6566 22.4109 12.3891 21.0461 11.1806 21.8569C10.5062 22.3088 10.6371 23.3842 10.8644 24.2074L10.5094 24.3049C10.039 22.6059 10.5016 21.8708 10.975 21.5536C12.3564 20.6267 15.6317 21.9296 19.7339 25.0399L19.5096 25.3308Z" fill="black"/>
<path d="M15.5656 38.5799C10.8466 31.7483 12.4492 20.8038 19.1367 14.1826L19.3968 14.441C12.8276 20.943 11.2453 31.6786 15.8693 38.3725L15.5656 38.5799Z" fill="black"/>
<path d="M15.5866 38.6032C8.7994 31.5565 8.72932 20.4279 15.4278 13.7959L15.6879 14.0543C9.12957 20.5455 9.20277 31.4451 15.853 38.3494L15.5866 38.6032Z" fill="black"/>
<path d="M30.1313 35.385L30.0036 35.2875C22.9609 29.9491 16.1597 21.7373 14.8405 16.9807L14.8125 16.8786L14.8888 16.8027C21.5795 10.18 32.7882 9.16033 39.8729 14.5312L39.9228 14.5684L39.9383 14.6272C41.2637 19.4085 36.9154 28.6694 30.245 35.2705L30.1313 35.385ZM15.2237 16.9869C16.5848 21.6645 23.207 29.6412 30.0986 34.9007C36.593 28.4172 40.8339 19.4425 39.5988 14.785C32.6792 9.58276 21.7835 10.5715 15.2237 16.9869Z" fill="black"/>
<path d="M35.7455 28.1126C29.6607 23.4999 23.7846 16.4037 22.6445 12.2908L22.9996 12.1934C24.121 16.2397 29.9395 23.2508 35.9698 27.8202L35.7455 28.1126Z" fill="black"/>
<path d="M39.2064 20.7706C35.6383 18.0658 32.1902 13.8987 31.5205 11.4832L31.8756 11.3857C32.5282 13.7378 35.9155 17.8167 39.4291 20.4797L39.2064 20.7706Z" fill="black"/>
<path d="M18.0843 22.7028L17.8242 22.4444C24.5009 15.8356 34.3734 12.2767 39.8321 14.5095L39.6919 14.8484C34.3578 12.665 24.6644 16.1884 18.0843 22.7028Z" fill="black"/>
<path d="M23.4984 29.2369L23.2383 28.9785C29.876 22.4084 37.2457 15.9218 39.6675 14.5215L39.8528 14.8371C37.4529 16.2251 30.1174 22.6838 23.4984 29.2369Z" fill="black"/>
<path d="M38.8214 39.6613C36.8809 39.6613 33.7396 38.1232 30.0002 35.29L29.832 35.1631L29.9815 35.0145C36.5679 28.4955 40.8741 19.3939 39.5799 14.7271L39.4351 14.2041L39.8696 14.5337C43.1698 17.0358 45.1321 20.5839 45.3938 24.5219C45.6756 28.7694 43.9967 32.9395 40.6639 36.2756C41.1576 38.1541 40.639 38.9711 40.1094 39.327C39.7746 39.5514 39.3416 39.6613 38.8214 39.6613ZM30.3927 35.1244C37.2687 40.2926 39.5207 39.2791 39.9054 39.0222C40.7013 38.4884 40.5502 37.2304 40.2839 36.2679L40.2558 36.1658L40.3321 36.09C43.6385 32.8173 45.3065 28.7168 45.0293 24.5451C44.7864 20.8779 43.0249 17.5572 40.0549 15.1418C40.9504 20.0113 36.7485 28.7632 30.3927 35.1244Z" fill="black"/>
<path d="M43.3806 31.8928C41.697 31.8928 38.9793 30.5636 35.7461 28.1141L35.9688 27.8232C39.8219 30.7431 43.0909 32.1079 44.2979 31.2971C44.9722 30.8452 44.8414 29.7698 44.614 28.9466L44.9691 28.8491C45.4395 30.5481 44.9769 31.2831 44.505 31.6003C44.2122 31.7953 43.8338 31.8928 43.3806 31.8928Z" fill="black"/>
<path d="M43.7196 22.9928C42.7104 22.9928 41.1032 22.2129 39.2031 20.7723L39.4258 20.4814C42.1295 22.5301 43.6901 22.8551 44.2056 22.51C44.5622 22.2702 44.4859 21.676 44.3597 21.2195L44.7148 21.1221C45.003 22.1588 44.7086 22.6137 44.4127 22.8133C44.2305 22.9325 43.9984 22.9928 43.7196 22.9928Z" fill="black"/>
<path d="M36.3382 38.9699L36.0781 38.7115C42.6473 32.2095 44.2297 21.4739 39.6057 14.7816L39.9094 14.5742C44.6284 21.4058 43.0273 32.3487 36.3382 38.9699Z" fill="black"/>
<path d="M40.0517 39.3559L39.7916 39.0975C46.3484 32.6064 46.2752 21.7083 39.625 14.804L39.8913 14.5518C46.6785 21.5984 46.7502 32.7255 40.0517 39.3559Z" fill="black"/>
<path d="M40.3689 36.5701L40.2848 36.2684C38.9844 31.5768 32.2407 23.4516 25.2541 18.155L25.0859 18.0281L25.2354 17.8796C29.7566 13.4046 34.3884 11.1037 37.3226 11.8774C38.6121 12.2178 39.5108 13.1477 39.9219 14.5698C43.1941 17.0703 45.1377 20.6014 45.3978 24.5208C45.6813 28.7993 43.9759 33.0004 40.5932 36.3489L40.3689 36.5701ZM25.6451 17.991C32.4806 23.2195 39.0513 31.1126 40.5511 35.8707C43.7127 32.6352 45.3012 28.6244 45.0303 24.5456C44.7748 20.7128 42.8654 17.2606 39.6494 14.8235L39.5995 14.7864L39.584 14.7276C39.2117 13.386 38.419 12.5458 37.2291 12.2332C34.4507 11.4982 30.0261 13.7032 25.6451 17.991Z" fill="black"/>
<path d="M44.6157 28.9446C43.4944 24.8983 37.6758 17.8872 31.6455 13.3163L31.8682 13.0254C37.9531 17.6381 43.8292 24.7343 44.9692 28.8471L44.6157 28.9446Z" fill="black"/>
<path d="M44.3621 21.2177C43.7095 18.8658 40.3206 14.7869 36.8086 12.1239L37.0313 11.833C40.5994 14.5378 44.0475 18.7033 44.7172 21.1203L44.3621 21.2177Z" fill="black"/>
<path d="M37.6575 30.7081L37.3975 30.4497C41.5308 26.3585 43.6022 21.9377 42.9388 18.6248C42.5899 16.8793 41.467 15.5734 39.6915 14.8477L39.8317 14.5088C41.7255 15.284 42.9247 16.6813 43.3001 18.5536C43.9885 21.9856 41.8782 26.5302 37.6575 30.7081Z" fill="black"/>
<path d="M32.2406 24.1748L31.9805 23.9164C37.8675 18.0891 40.1507 15.2311 40.3376 14.6044C40.2597 14.6261 40.1133 14.6849 39.8532 14.835L39.6679 14.5193C40.0744 14.2841 40.4746 14.1 40.6584 14.3367C40.7846 14.5008 40.9964 14.7731 38.6135 17.5042C37.0888 19.2511 34.8851 21.5583 32.2406 24.1748Z" fill="black"/>
<path d="M25.3819 18.2502L25.2542 18.1527C22.3201 15.9276 20.2129 14.8151 18.7271 14.2921C17.4391 15.0627 16.2337 15.9864 15.1481 17.0603L14.9239 17.2816L14.8398 16.9798C14.2994 15.0286 14.8273 14.1869 15.3662 13.8263C16.0748 13.3513 17.218 13.3869 18.6866 13.8913C23.5349 11.0535 29.5013 10.3293 34.6533 11.8952C35.6407 11.6832 36.5409 11.6709 37.3211 11.8767C38.6294 12.2217 39.5342 13.1733 39.9376 14.6279L40.0824 15.1509L39.6479 14.8213C38.1372 13.6762 36.4334 12.8267 34.6268 12.2681C32.0025 12.8623 28.7304 14.9342 25.4941 18.1373L25.3819 18.2502ZM19.1351 14.0553C20.8592 14.7269 22.982 15.9833 25.3492 17.7659C28.3519 14.8182 31.3983 12.8329 33.9555 12.0747C29.1338 10.7873 23.6626 11.496 19.1351 14.0553ZM16.6651 13.8758C16.0312 13.8758 15.701 14.043 15.5733 14.1281C14.86 14.6062 14.9083 15.6692 15.1186 16.5775C16.0873 15.6507 17.1463 14.8398 18.2692 14.1435C17.5949 13.9439 17.0684 13.8758 16.6651 13.8758ZM35.3884 12.1351C36.8118 12.6364 38.1637 13.3188 39.4018 14.1869C38.9813 13.1563 38.2525 12.4987 37.2292 12.2295C36.6764 12.084 36.0581 12.0546 35.3884 12.1351Z" fill="black"/>
<path d="M31.6459 13.318C27.7929 10.3982 24.5223 9.03339 23.3169 9.8442C22.6425 10.296 22.7733 11.3714 23.0007 12.1946L22.6456 12.2921C22.1753 10.5931 22.6378 9.85813 23.1097 9.54092C24.4912 8.61405 27.7664 9.91693 31.8687 13.0271L31.6459 13.318Z" fill="black"/>
<path d="M36.8102 12.1221C34.1065 10.0734 32.5444 9.74846 32.0305 10.0951C31.6738 10.3349 31.7501 10.9291 31.8763 11.3856L31.5212 11.4831C31.2331 10.4463 31.5274 9.9914 31.8233 9.79179C32.6597 9.23165 34.6064 9.99295 37.0329 11.8328L36.8102 12.1221Z" fill="black"/>
<path d="M39.6109 14.7815C37.5769 11.8368 34.5679 10.0404 31.1385 9.72315C27.0845 9.34869 22.8079 11.0678 19.4002 14.4426L19.1401 14.1842C22.6272 10.7336 27.0129 8.97577 31.1728 9.35952C34.7128 9.68756 37.8167 11.5397 39.9146 14.5757L39.6109 14.7815Z" fill="black"/>
<path d="M39.632 14.8042C36.324 11.3706 31.9461 9.4488 27.3003 9.39309C22.8944 9.34358 18.7797 10.9962 15.6898 14.0553L15.4297 13.7969C18.5414 10.7161 22.6779 9.02637 27.0979 9.02637C27.1664 9.02637 27.2349 9.02637 27.3035 9.02791C32.0473 9.08362 36.5203 11.0457 39.8967 14.552L39.632 14.8042Z" fill="black"/>
<path d="M27.6861 44.3154C27.3669 44.3154 27.0305 44.3015 26.7766 44.2829C26.3499 44.2535 25.7534 44.1916 24.9544 44.0926C24.4841 44.0338 23.8985 43.9053 23.5403 43.814C22.9516 43.6624 22.1635 43.4257 21.5779 43.2229C21.0718 43.0481 19.9691 42.5916 19.0129 42.047C18.5706 41.7963 17.3963 41.1278 16.1924 40.1035C15.5866 39.5882 14.6677 38.7588 13.6834 37.5101C13.3579 37.0985 13.1072 36.738 13.1056 36.7349C12.8533 36.3712 12.8533 36.3712 12.4686 35.7631C12.1712 35.2927 11.8581 34.6753 11.7242 34.4123C11.5248 34.0177 11.3146 33.5504 11.1869 33.2162C11.0919 32.9686 10.9937 32.6916 10.8987 32.4162C10.7617 32.051 10.6402 31.6781 10.5359 31.3005C10.3941 30.7528 10.2088 30.0301 10.1325 29.4777C10.0609 28.964 9.98143 28.3776 9.94405 27.9257C9.92848 27.7462 9.8802 27.1211 9.89266 26.6321L9.89421 26.5548C9.90512 26.1045 9.91913 25.5443 9.95184 25.1126C9.98143 24.7351 10.0437 24.2152 10.1107 23.7896C10.3646 22.199 10.7742 21.0493 10.7913 21.0013C10.9128 20.6655 11.137 20.0388 11.3255 19.5963C11.4625 19.2744 11.6852 18.8071 11.922 18.3476C12.2724 17.6652 12.8113 16.8033 13.2613 16.1998C13.8376 15.4292 14.5742 14.5705 15.1396 14.015C15.9962 13.1732 16.331 12.921 17.4461 12.0854C17.8339 11.7945 18.3821 11.4665 18.759 11.2467C19.1032 11.0456 19.5891 10.7887 19.9956 10.5937C20.3881 10.405 20.9472 10.1667 21.4191 9.98718C21.687 9.88505 22.0109 9.78138 22.3255 9.68235C22.4626 9.63902 22.5949 9.59724 22.7133 9.55701C23.154 9.41156 23.7365 9.28777 24.2474 9.1841C24.5246 9.12839 24.8579 9.07888 25.1802 9.03245C25.3173 9.01234 25.4481 8.99377 25.568 8.9752C26.0586 8.89783 26.7065 8.86843 27.2173 8.85296C27.655 8.83749 28.1674 8.84213 28.5209 8.86224C29.0317 8.89164 29.7435 8.95818 30.3306 9.03245C31.1638 9.13767 31.9083 9.33264 32.6948 9.53999C33.2819 9.69473 34.0606 9.96706 34.6322 10.2162C35.1617 10.4483 35.5573 10.6293 35.8392 10.7732C36.1958 10.9543 36.6724 11.2189 37.0244 11.4324C37.3904 11.6537 37.8093 11.926 38.0912 12.1272C38.5117 12.4289 38.6534 12.5295 39.2842 13.0479C39.3527 13.1051 39.7125 13.4068 40.1844 13.8602C40.5441 14.2068 40.8447 14.5333 40.9896 14.6896C41.164 14.8799 41.5534 15.3287 41.7979 15.6443C42.1935 16.1519 42.2635 16.2571 42.6576 16.8327C42.9535 17.2675 43.4768 18.1588 43.7602 18.7514C43.9782 19.2064 44.3427 19.9692 44.6401 20.8729C44.9641 21.8539 45.1868 22.7173 45.3036 23.4384C45.422 24.1687 45.5559 24.9935 45.5808 26.1772C45.6089 27.4755 45.4921 28.4998 45.4204 28.995C45.3472 29.5009 45.2117 30.4448 44.8083 31.7709C44.5654 32.5709 44.1262 33.5984 43.8007 34.3194C43.6512 34.6506 43.4113 35.0916 43.0672 35.6672C42.9176 35.9194 42.7199 36.2103 42.5298 36.4904C42.4473 36.6142 42.3663 36.7318 42.2947 36.8416C42.0268 37.2486 41.6188 37.7453 41.326 38.0749L41.273 38.1352C40.921 38.5313 40.485 39.0234 40.1034 39.3638C40.0177 39.4412 39.9243 39.5248 39.8277 39.613C39.5661 39.8497 39.2702 40.1174 39.021 40.3186C38.6768 40.5971 38.1691 40.9963 37.7548 41.2578L37.4698 41.4388C37.1739 41.6276 36.8375 41.8412 36.5603 41.9974C36.132 42.2373 35.5713 42.522 35.1664 42.7061C33.7351 43.356 32.5001 43.6717 32.3646 43.7057C31.522 43.9146 30.4194 44.1019 29.7295 44.1978C29.3541 44.2504 28.8838 44.269 28.4679 44.286C28.3309 44.2922 28.2001 44.2968 28.0786 44.303C27.9587 44.3123 27.8232 44.3154 27.6861 44.3154ZM13.604 36.7968C13.7021 36.9298 13.8298 37.1016 13.9731 37.2826C14.9387 38.5066 15.8389 39.319 16.4322 39.8249C17.6096 40.8276 18.7621 41.4822 19.1951 41.7282C20.1311 42.2605 21.2042 42.7061 21.6994 42.8763C22.2757 43.0744 23.0528 43.3081 23.6337 43.4581C24.0916 43.5757 24.6274 43.6825 25.0011 43.7289C25.7923 43.828 26.3826 43.8899 26.8031 43.9177C27.155 43.9425 27.6706 43.961 28.063 43.9409C28.1861 43.9347 28.3184 43.9285 28.4555 43.9239C28.862 43.9069 29.3245 43.8883 29.6812 43.8388C30.3618 43.7444 31.4504 43.5603 32.2789 43.3545C32.4113 43.322 33.6168 43.0141 35.0184 42.3765C35.4156 42.1955 35.9653 41.917 36.3843 41.6818C36.6537 41.5317 36.9839 41.3197 37.2767 41.134L37.5633 40.9514C37.962 40.7007 38.4572 40.3093 38.7952 40.0385C39.0366 39.8451 39.3278 39.5805 39.5863 39.3468C39.6845 39.2586 39.7779 39.1735 39.8651 39.0961C40.2311 38.7696 40.661 38.2869 41.0051 37.8969L41.0581 37.8366C41.3415 37.5163 41.7371 37.0351 41.9941 36.6436C42.0657 36.5337 42.1483 36.413 42.2324 36.2892C42.4193 36.0122 42.6124 35.726 42.7572 35.483C43.0936 34.9198 43.3272 34.4912 43.4705 34.1724C43.7914 33.4606 44.2228 32.4487 44.461 31.6673C44.8566 30.3675 44.9906 29.4421 45.0622 28.9454C45.1323 28.4611 45.246 27.4584 45.2179 26.1865C45.193 25.0291 45.0622 24.2167 44.9454 23.5003C44.8317 22.7962 44.6121 21.9529 44.2944 20.9889C44.0032 20.1085 43.645 19.358 43.4316 18.9108C43.1544 18.3321 42.6451 17.464 42.3601 17.0462C41.9676 16.4722 41.8991 16.37 41.5097 15.8702C41.2699 15.5623 40.8914 15.1244 40.7217 14.9387C40.58 14.784 40.2841 14.4637 39.9321 14.1233C39.4695 13.6776 39.1191 13.3852 39.0537 13.331C38.4323 12.8204 38.2921 12.7198 37.8794 12.4243C37.6053 12.2278 37.1957 11.9616 36.8375 11.745C36.4933 11.5361 36.0261 11.2777 35.6757 11.0997C35.4 10.9589 35.0122 10.781 34.4889 10.552C33.9329 10.309 33.176 10.0444 32.6044 9.89433C31.8304 9.69008 31.0984 9.49821 30.2886 9.39608C29.7077 9.32336 29.0084 9.25682 28.5038 9.22742C28.1596 9.20731 27.6612 9.20421 27.2345 9.21814C26.7345 9.23516 26.1007 9.26301 25.6303 9.33728C25.5104 9.35585 25.3765 9.37597 25.2394 9.39608C24.9217 9.44251 24.5931 9.49047 24.3268 9.54463C23.9655 9.6189 23.2927 9.75507 22.8348 9.90671C22.7133 9.94694 22.5809 9.98872 22.4423 10.0336C22.1324 10.1326 21.8116 10.2332 21.5546 10.3322C21.092 10.5086 20.5438 10.7423 20.1591 10.9264C19.7667 11.1152 19.2792 11.3705 18.949 11.5639C18.5784 11.7806 18.0442 12.1009 17.6719 12.3794C16.5724 13.2041 16.2407 13.4533 15.4028 14.2765C14.8499 14.8211 14.1257 15.6614 13.5604 16.4196C13.1212 17.0076 12.5963 17.8509 12.2537 18.5162C12.0201 18.9696 11.802 19.4276 11.6681 19.7417C11.4843 20.175 11.2616 20.7939 11.1417 21.1266C11.1246 21.1731 10.7274 22.2918 10.4782 23.8484C10.4128 24.2585 10.3505 24.7784 10.3225 25.142C10.2898 25.5645 10.2773 26.12 10.2664 26.5656L10.2649 26.643C10.2571 26.9602 10.2758 27.429 10.3147 27.8963C10.3552 28.3745 10.4471 29.0352 10.5016 29.4282C10.5748 29.9605 10.757 30.6708 10.891 31.1907C10.8925 31.1984 10.8941 31.2046 10.8972 31.2123C10.986 31.4986 11.109 31.8808 11.2398 32.2661C12.1135 34.6041 13.6569 36.659 15.7517 38.2698C15.7797 38.2915 15.8062 38.3116 15.8342 38.3333L15.6115 38.6242C14.8748 38.064 14.2051 37.4544 13.604 36.7968Z" fill="black"/>
</svg>
